<?xml version="1.0" encoding="utf-8"?>
<!-- Generator: Adobe Illustrator 25.4.1, SVG Export Plug-In . SVG Version: 6.00 Build 0)  -->
<svg version="1.1" id="Layer_1" xmlns="http://www.w3.org/2000/svg" xmlns:xlink="http://www.w3.org/1999/xlink" x="0px" y="0px"
	 viewBox="0 0 716.8 182.6" style="enable-background:new 0 0 716.8 182.6;" xml:space="preserve">
<style type="text/css">
	.st0{fill:#078080;}
</style>
<g>
	<g id="Layer_2_00000140005881284835526390000017479139194137386933_">
		<g id="Layer_1-2">
			<path class="st0" d="M216.1,63.3c4.3-2.1,9-3.1,13.8-3.1c7.7,0,13.9,2.5,18.7,7.5c4.8,5,7.1,11.9,7.1,20.5c0,2.9-0.3,5.9-0.8,8.7
				c-1.1,6.9-3.7,13.5-7.6,19.4c-3.5,5.3-8.1,9.8-13.6,13c-5.1,3-10.9,4.6-16.8,4.6c-5.1,0-9.3-1-12.7-3c-3.3-1.8-5.9-4.6-7.5-8l0,0
				c-1,5.8-6.1,10-12,10h-11.8l14.8-83.4c1.2-6.7,7-11.6,13.9-11.6h10.1l-6,33.5C208.5,67.9,212.1,65.2,216.1,63.3z M233.1,92.9
				c0-4.3-1.2-7.6-3.7-10c-2.5-2.4-5.8-3.7-9.3-3.6c-4.4,0-8.7,1.7-11.9,4.8c-3.6,3.2-5.9,7.5-6.9,13c-0.2,1.4-0.4,2.8-0.4,4.2
				c0,4.2,1.2,7.5,3.6,9.9c2.5,2.4,5.8,3.7,9.2,3.6c4.4,0,8.4-1.6,12-4.8c3.6-3.2,6-7.6,7-13C232.9,95.6,233,94.3,233.1,92.9z"/>
			<path class="st0" d="M335.1,61.2l-10.5,59.9c-1.2,6.8-7.1,11.8-14.1,11.8h-10l1.7-9.8c-2.9,3.2-6.4,5.8-10.4,7.7
				c-4.1,1.9-8.5,2.9-13,2.9c-7.2,0-12.9-2-17-6.1s-6.2-9.7-6.2-17c0-2.5,0.2-5,0.6-7.5l5.4-30.1c1.2-6.8,7.1-11.8,14.1-11.8h9.9
				l-6.8,38.9c-0.2,1.3-0.4,2.6-0.4,4c0,3.6,1,6.4,3,8.3c2,1.9,4.8,2.9,8.4,2.9c3.8,0.1,7.5-1.2,10.5-3.7c2.9-2.4,4.8-5.9,5.7-10.5
				l7.1-40L335.1,61.2z"/>
			<path class="st0" d="M447.7,66.5c4.3,4.1,6.5,9.7,6.5,17c0,2.5-0.3,5-0.8,7.5l-5.4,30.2c-1.2,6.7-7.1,11.6-13.9,11.6h-10
				l6.9-38.9c0.2-1.1,0.3-2.3,0.3-3.5c0-3.6-1-6.3-3-8.2c-2-1.9-4.8-2.8-8.4-2.8c-3.9-0.1-7.8,1.2-10.8,3.8
				c-2.9,2.5-4.8,6.1-5.5,10.7l-4.8,27.2c-1.2,6.8-7.1,11.8-14.1,11.8h-9.9l6.9-38.9c0.2-1.1,0.3-2.3,0.3-3.5c0-3.6-1-6.3-3-8.2
				c-2-1.9-4.8-2.8-8.4-2.8c-3.9-0.1-7.8,1.2-10.8,3.8c-2.9,2.5-4.8,6.1-5.5,10.7v-0.6l-4.8,27.7c-1.2,6.9-7.2,11.9-14.2,11.9h-9.9
				L335.8,73c1.2-6.9,7.1-11.9,14.1-11.9h10l-1.5,9.2c2.8-3.1,6.2-5.6,10-7.3c4-1.8,8.3-2.6,12.6-2.6c5.5,0,10.1,1.2,13.9,3.5
				c3.8,2.3,6.7,5.8,8.2,10c3.2-4.1,7.2-7.4,11.8-9.8c4.5-2.4,9.6-3.7,14.8-3.7C437.3,60.5,443.3,62.5,447.7,66.5z"/>
			<path class="st0" d="M492,63.3c4.3-2.1,9-3.1,13.8-3.1c7.7,0,13.9,2.5,18.7,7.6s7.1,11.9,7.1,20.6c0,2.9-0.3,5.8-0.8,8.6
				c-1.1,6.9-3.7,13.6-7.6,19.4c-3.5,5.3-8.1,9.8-13.6,13c-5.1,3-10.9,4.6-16.8,4.6c-5,0-9.2-1-12.6-3.1c-3.2-1.9-5.9-4.6-7.6-8
				l-5.7,32.4c-1.2,6.8-7.1,11.8-14,11.8h-10L459.4,73c1.2-6.8,7.1-11.8,14-11.8h10l-1.8,10.2C484.4,67.9,488,65.2,492,63.3z
				 M509,93c0-4.3-1.2-7.6-3.7-10c-2.5-2.4-5.8-3.7-9.3-3.6c-4.4,0-8.7,1.7-12,4.8c-3.6,3.2-5.9,7.5-6.9,13
				c-0.2,1.4-0.4,2.8-0.4,4.2c0,4.2,1.2,7.5,3.6,9.9c2.5,2.4,5.8,3.7,9.2,3.6c4.4,0,8.4-1.6,12-4.8c3.7-3.2,6-7.6,7-13
				C508.8,95.6,509,94.3,509,93L509,93z"/>
			<path class="st0" d="M597.8,67.7c5.5,5,8.2,11.8,8.2,20.5c0,2.8-1.5,11.6-2.2,13.9h-49.8c-0.1,0.8-0.1,1.6-0.1,2.4
				c0,3.8,1,6.6,3.1,8.6s4.8,2.9,8.2,3c3.5,0.1,6.8-1.1,9.5-3.3c2.7-2.3,6.2-3.6,9.8-3.7h16.7c-3.1,7.3-8.3,13.6-15,17.9
				c-6.9,4.6-15,7-23.4,6.9c-9.3,0-16.6-2.6-22.2-7.7c-5.5-5.1-8.3-12.1-8.3-21c0-2.8,0.3-5.5,0.8-8.2c1.1-7,3.8-13.7,8-19.5
				c3.9-5.4,9-9.9,15-12.8c6.1-3,12.8-4.6,19.7-4.5C585,60.1,592.4,62.6,597.8,67.7z M584,88.4c0-3.4-1.1-6.1-3.2-7.9
				c-2.1-1.8-5-2.8-8.5-2.8c-3.6-0.1-7.1,1.1-10,3.4c-2.9,2.3-5,5.5-6.2,9.7h27.6C583.9,90,584,89.2,584,88.4z"/>
			<path class="st0" d="M672,67.7c5.4,5,8.2,11.9,8.2,20.5c0,2.8-1.5,11.6-2.2,13.9h-49.7c-0.1,0.8-0.1,1.6-0.1,2.4
				c0,3.8,1,6.6,3.1,8.6c2.1,2,4.8,2.9,8.2,3c3.5,0.1,6.8-1.1,9.5-3.3c2.7-2.3,6.2-3.6,9.8-3.7h16.7c-3.1,7.3-8.4,13.5-15,17.8
				c-6.9,4.6-15.1,7-23.4,6.9c-9.2,0-16.6-2.6-22.2-7.7c-5.5-5.1-8.3-12.1-8.3-21c0-2.8,0.3-5.5,0.8-8.2c1.1-7,3.8-13.7,8-19.5
				c3.9-5.4,9-9.9,15-12.8c6.1-3,12.8-4.6,19.7-4.5C659.3,60.1,666.6,62.6,672,67.7z M658.2,88.4c0-3.4-1.1-6.1-3.2-7.9
				c-2.1-1.8-5-2.8-8.5-2.8c-3.6-0.1-7.1,1.1-10,3.4c-2.9,2.3-5,5.5-6.2,9.7h27.6C658.1,90,658.2,89.2,658.2,88.4z"/>
		</g>
	</g>
	<g id="Layer_2_00000143597377501671109500000011782282225537840014_">
		<g id="Layer_12">
			<circle class="st0" cx="101" cy="91.3" r="32.6"/>
			<path class="st0" d="M101.1,148.5c-19.1,0-36.9-9.6-47.5-25.5c-1.3-1.9-3.8-2.4-5.7-1.1c-0.9,0.6-1.5,1.6-1.7,2.6l-9.5,53.3
				c-0.4,2.2,1.1,4.3,3.3,4.7c0.2,0,0.5,0.1,0.7,0.1H92c24.2,0,44.9-17.4,49.2-41.2l0,0c0.4-2.2-1.1-4.3-3.3-4.7
				c-1.1-0.2-2.3,0.1-3.2,0.8C125,144.6,113.2,148.5,101.1,148.5z"/>
			<path class="st0" d="M101,34.2c19.1,0,36.9,9.6,47.5,25.5c1.3,1.9,3.8,2.4,5.7,1.1c0.9-0.6,1.6-1.6,1.8-2.7l9.5-53.4
				c0.4-2.2-1.1-4.3-3.3-4.7c-0.2,0-0.5-0.1-0.7-0.1H110c-24.2,0-45,17.4-49.2,41.2l0,0c-0.3,2.2,1.2,4.3,3.4,4.7
				c1.1,0.2,2.2-0.1,3.1-0.8C77.1,38,88.9,34.2,101,34.2z"/>
		</g>
	</g>
</g>
</svg>
